<svg width="167" height="32" viewBox="0 0 167 32" fill="none" xmlns="http://www.w3.org/2000/svg">
<g clip-path="url(#clip0_2103_3083)">
<path d="M51.7898 10.9901L52.2159 8.45455H64.1619L63.7358 10.9901H59.2827L57.294 23H54.2543L56.2429 10.9901H51.7898ZM62.5249 23L64.343 12.0909H67.2763L66.9567 13.9943H67.0703C67.3828 13.3172 67.8018 12.8059 68.3274 12.4602C68.8577 12.1098 69.4283 11.9347 70.0391 11.9347C70.1906 11.9347 70.3492 11.9441 70.5149 11.9631C70.6854 11.9773 70.8369 12.0009 70.9695 12.0341L70.5149 14.7259C70.3823 14.6785 70.1929 14.6406 69.9467 14.6122C69.7053 14.5791 69.4756 14.5625 69.2578 14.5625C68.8175 14.5625 68.4079 14.6596 68.0291 14.8537C67.6503 15.0431 67.3307 15.3082 67.0703 15.6491C66.8146 15.9901 66.6465 16.383 66.5661 16.8281L65.5504 23H62.5249ZM70.7085 23L72.5266 12.0909H75.5522L73.734 23H70.7085ZM74.3519 10.6705C73.9021 10.6705 73.5304 10.5213 73.2369 10.223C72.948 9.91998 72.8297 9.56013 72.8817 9.14347C72.9338 8.71733 73.1374 8.35748 73.4925 8.06392C73.8477 7.76562 74.2501 7.61648 74.6999 7.61648C75.1497 7.61648 75.5167 7.76562 75.8008 8.06392C76.0849 8.35748 76.2032 8.71733 76.1559 9.14347C76.1085 9.56013 75.9073 9.91998 75.5522 10.223C75.2018 10.5213 74.8017 10.6705 74.3519 10.6705ZM75.4972 27.0909L78.0114 12.0909H80.9943L80.6889 13.9233H80.8239C81.0038 13.6297 81.2429 13.3314 81.5412 13.0284C81.8442 12.7206 82.2206 12.465 82.6705 12.2614C83.1203 12.053 83.6482 11.9489 84.2543 11.9489C85.0545 11.9489 85.7528 12.1572 86.3494 12.5739C86.946 12.9858 87.3769 13.6084 87.642 14.4418C87.9119 15.2704 87.9427 16.3097 87.7344 17.5597C87.5355 18.7765 87.1686 19.804 86.6335 20.642C86.1032 21.4754 85.4664 22.1075 84.723 22.5384C83.9844 22.9645 83.2008 23.1776 82.3722 23.1776C81.785 23.1776 81.3021 23.0805 80.9233 22.8864C80.5492 22.6922 80.258 22.4484 80.0497 22.1548C79.8414 21.8565 79.6946 21.5559 79.6094 21.2528H79.4957L78.5298 27.0909H75.4972ZM80.0639 17.5455C79.9598 18.1941 79.955 18.7599 80.0497 19.2429C80.1491 19.7259 80.348 20.1023 80.6463 20.3722C80.9446 20.6373 81.3376 20.7699 81.8253 20.7699C82.3177 20.7699 82.7557 20.6349 83.1392 20.3651C83.5227 20.0904 83.8423 19.7116 84.098 19.2287C84.3537 18.741 84.536 18.1799 84.6449 17.5455C84.7443 16.9157 84.7467 16.3617 84.652 15.8835C84.5573 15.4053 84.3632 15.0312 84.0696 14.7614C83.776 14.4915 83.3783 14.3565 82.8764 14.3565C82.3887 14.3565 81.9508 14.4867 81.5625 14.7472C81.179 15.0076 80.8594 15.3769 80.6037 15.8551C80.348 16.3333 80.1681 16.8968 80.0639 17.5455ZM95.9339 8.45455H99.7266L102.12 18.2273H102.29L107.908 8.45455H111.701L109.286 23H106.303L107.88 13.5327H107.752L102.44 22.929H100.401L98.2138 13.4972H98.093L96.5021 23H93.5192L95.9339 8.45455ZM111.763 23L113.581 12.0909H116.607L114.789 23H111.763ZM115.407 10.6705C114.957 10.6705 114.585 10.5213 114.292 10.223C114.003 9.91998 113.884 9.56013 113.936 9.14347C113.989 8.71733 114.192 8.35748 114.547 8.06392C114.902 7.76562 115.305 7.61648 115.755 7.61648C116.204 7.61648 116.571 7.76562 116.855 8.06392C117.14 8.35748 117.258 8.71733 117.211 9.14347C117.163 9.56013 116.962 9.91998 116.607 10.223C116.257 10.5213 115.856 10.6705 115.407 10.6705ZM121.303 16.6932L120.252 23H117.234L119.052 12.0909H121.928L121.616 14.0156H121.737C122.082 13.3764 122.57 12.8722 123.2 12.5028C123.834 12.1335 124.556 11.9489 125.366 11.9489C126.123 11.9489 126.755 12.1146 127.262 12.446C127.773 12.7775 128.133 13.2486 128.342 13.8594C128.555 14.4702 128.59 15.2017 128.448 16.054L127.283 23H124.258L125.33 16.5938C125.439 15.9261 125.354 15.4053 125.075 15.0312C124.8 14.6525 124.357 14.4631 123.746 14.4631C123.339 14.4631 122.965 14.5507 122.624 14.7259C122.283 14.901 121.997 15.1567 121.765 15.4929C121.538 15.8243 121.384 16.2244 121.303 16.6932ZM133.659 23.1776C132.826 23.1776 132.109 22.9645 131.507 22.5384C130.911 22.1075 130.485 21.4754 130.229 20.642C129.978 19.804 129.954 18.7765 130.158 17.5597C130.366 16.3097 130.74 15.2704 131.28 14.4418C131.82 13.6084 132.459 12.9858 133.198 12.5739C133.936 12.1572 134.706 11.9489 135.506 11.9489C136.112 11.9489 136.602 12.053 136.976 12.2614C137.355 12.465 137.646 12.7206 137.85 13.0284C138.053 13.3314 138.195 13.6297 138.276 13.9233H138.368L139.284 8.45455H142.303L139.888 23H136.905L137.196 21.2528H137.069C136.879 21.5559 136.628 21.8565 136.316 22.1548C136.008 22.4484 135.634 22.6922 135.194 22.8864C134.758 23.0805 134.247 23.1776 133.659 23.1776ZM134.995 20.7699C135.478 20.7699 135.913 20.6373 136.301 20.3722C136.69 20.1023 137.016 19.7259 137.282 19.2429C137.547 18.7599 137.731 18.1941 137.836 17.5455C137.944 16.8968 137.947 16.3333 137.843 15.8551C137.739 15.3769 137.535 15.0076 137.232 14.7472C136.934 14.4867 136.538 14.3565 136.046 14.3565C135.549 14.3565 135.108 14.4915 134.725 14.7614C134.346 15.0312 134.031 15.4053 133.78 15.8835C133.534 16.3617 133.359 16.9157 133.255 17.5455C133.15 18.1799 133.143 18.741 133.233 19.2287C133.323 19.7116 133.515 20.0904 133.809 20.3651C134.102 20.6349 134.498 20.7699 134.995 20.7699ZM147.312 23.2131C146.194 23.2131 145.269 22.9858 144.535 22.5312C143.801 22.072 143.285 21.4233 142.987 20.5852C142.693 19.7424 142.643 18.7457 142.837 17.5952C143.027 16.473 143.408 15.4882 143.981 14.6406C144.558 13.7931 145.283 13.1326 146.154 12.6591C147.025 12.1856 147.996 11.9489 149.066 11.9489C149.786 11.9489 150.437 12.0649 151.019 12.2969C151.606 12.5241 152.094 12.8698 152.482 13.3338C152.871 13.7931 153.136 14.3684 153.278 15.0597C153.424 15.7509 153.422 16.5606 153.271 17.4886L153.136 18.3196H143.931L144.222 16.4446H150.586C150.657 16.009 150.629 15.6231 150.501 15.2869C150.373 14.9508 150.16 14.688 149.862 14.4986C149.563 14.3045 149.196 14.2074 148.761 14.2074C148.316 14.2074 147.899 14.3163 147.511 14.5341C147.122 14.7519 146.796 15.0384 146.531 15.3935C146.27 15.7438 146.102 16.125 146.026 16.5369L145.692 18.3977C145.598 18.9706 145.617 19.4465 145.749 19.8253C145.887 20.2041 146.123 20.4882 146.46 20.6776C146.796 20.8622 147.222 20.9545 147.738 20.9545C148.074 20.9545 148.389 20.9072 148.683 20.8125C148.981 20.7178 149.246 20.5781 149.478 20.3935C149.71 20.2041 149.899 19.9697 150.046 19.6903L152.809 19.875C152.553 20.5473 152.165 21.1345 151.644 21.6364C151.123 22.1335 150.496 22.5218 149.762 22.8011C149.033 23.0758 148.216 23.2131 147.312 23.2131ZM154.341 23L156.159 12.0909H159.093L158.773 13.9943H158.887C159.199 13.3172 159.618 12.8059 160.144 12.4602C160.674 12.1098 161.245 11.9347 161.855 11.9347C162.007 11.9347 162.166 11.9441 162.331 11.9631C162.502 11.9773 162.653 12.0009 162.786 12.0341L162.331 14.7259C162.199 14.6785 162.009 14.6406 161.763 14.6122C161.522 14.5791 161.292 14.5625 161.074 14.5625C160.634 14.5625 160.224 14.6596 159.846 14.8537C159.467 15.0431 159.147 15.3082 158.887 15.6491C158.631 15.9901 158.463 16.383 158.382 16.8281L157.367 23H154.341Z" fill="#EB662B"/>
<path d="M39.9246 6.90198C38.6506 6.97877 37.3919 7.21981 36.1796 7.61911C34.9471 7.96503 33.7473 8.41829 32.594 8.97369C31.4296 9.4727 30.3322 10.1151 29.327 10.886C28.3008 11.5949 27.3408 12.3949 26.4585 13.2765C25.5696 14.2024 24.7443 15.1873 23.9884 16.2247C23.2751 17.2675 22.6361 18.3591 22.076 19.4916C21.5552 20.6595 21.1029 21.8568 20.7215 23.0773C20.4058 24.3097 20.1663 25.5604 20.0043 26.8223C19.9199 25.5492 19.6791 24.2914 19.2872 23.0773C18.9413 21.8448 18.488 20.645 17.9326 19.4916C17.4336 18.3273 16.7912 17.2298 16.0203 16.2247C15.2919 15.1884 14.4932 14.2033 13.6298 13.2765C12.703 12.4131 11.7179 11.6144 10.6816 10.886C9.67647 10.1151 8.579 9.4727 7.41468 8.97369C6.27257 8.39246 5.07016 7.93822 3.82902 7.61911C2.61677 7.21981 1.35801 6.97877 0.0840036 6.90198C0.0840036 7.61911 0.0043223 8.33624 0.0043223 9.05337C-0.0264515 10.5245 0.107179 11.9944 0.402729 13.4358C0.551182 14.1622 0.737357 14.8803 0.960498 15.5872C1.12782 16.3006 1.36813 16.9948 1.67763 17.659C1.93625 18.3372 2.22878 19.0021 2.55412 19.651L3.66966 21.5633L5.02424 23.3163L6.45851 24.9099L8.05213 26.4239L9.80512 27.6988C10.4426 28.1769 11.08 28.4956 11.7175 28.894L13.7095 29.8502L15.7015 30.5673L17.8529 31.1251L20.0043 31.4438L22.1557 31.1251L24.3071 30.5673L26.3788 29.8502L28.3709 28.894L30.2035 27.6988L31.9565 26.4239C32.5257 25.9608 33.0584 25.4546 33.5501 24.9099C34.0948 24.4182 34.6009 23.8855 35.0641 23.3163L36.339 21.5633C36.7374 20.9259 37.1358 20.2884 37.4545 19.651L38.4107 17.659L39.1278 15.5872C39.3251 14.8791 39.4847 14.1609 39.6059 13.4358C39.7511 12.725 39.8575 12.0068 39.9246 11.2844C40.0321 10.5459 40.0588 9.79775 40.0043 9.05337C40.0175 8.33532 39.9909 7.61709 39.9246 6.90198Z" fill="url(#paint0_linear_2103_3083)"/>
<path d="M25.0244 5.54736C25.0405 5.8946 25.0138 6.24252 24.9447 6.58321C24.875 6.93869 24.7681 7.28588 24.626 7.61907L24.1479 8.49556L23.5104 9.29237L22.7136 9.92982L21.7574 10.4079L20.8013 10.7266H18.7295L17.6937 10.4079L16.8172 9.92982L16.0204 9.29237L15.3033 8.49556L14.8252 7.61907L14.5064 6.58321C14.5064 6.26449 14.4268 5.94576 14.4268 5.54736C14.4268 5.14895 14.5064 4.90991 14.5064 4.59118C14.5064 4.27246 14.7455 3.87405 14.8252 3.55532L15.3033 2.67883L16.0204 1.88202C16.249 1.62708 16.5183 1.41169 16.8172 1.24457L17.6937 0.766479L18.7295 0.447754H20.8013L21.7574 0.766479L22.7136 1.24457L23.5104 1.88202L24.1479 2.67883L24.626 3.55532C24.7789 3.88448 24.8861 4.23299 24.9447 4.59118C25.0105 4.90542 25.0372 5.22657 25.0244 5.54736Z" fill="#EB662B"/>
</g>
<defs>
<linearGradient id="paint0_linear_2103_3083" x1="6.50516" y1="10.5831" x2="23.3076" y2="35.6689" gradientUnits="userSpaceOnUse">
<stop stop-color="#EB662B"/>
<stop offset="1" stop-color="#F28555"/>
</linearGradient>
<clipPath id="clip0_2103_3083">
<rect width="167" height="32" fill="white"/>
</clipPath>
</defs>
</svg>
